<svg width="156" height="156" viewBox="0 0 156 156" fill="none" xmlns="http://www.w3.org/2000/svg">
<path d="M152.525 86.4259C154.172 86.6121 155.361 88.0989 155.112 89.7369C152.947 103.96 146.887 117.328 137.576 128.346C127.618 140.129 114.39 148.695 99.5644 152.96C84.7388 157.225 68.9813 156.998 54.2847 152.307C39.5881 147.617 26.6124 138.674 16.9985 126.609C7.38458 114.544 1.56424 99.899 0.273495 84.5261C-1.01725 69.1533 2.27957 53.7429 9.74705 40.2438C17.2145 26.7446 28.5173 15.7629 42.226 8.68752C55.0448 2.07138 69.429 -0.851351 83.7761 0.214143C85.4284 0.336852 86.6121 1.82844 86.4259 3.47481L82.7188 36.2629C82.5327 37.9093 81.0465 39.0809 79.3907 39.0218C72.717 38.7836 66.0755 40.263 60.1116 43.3411C53.2567 46.8791 47.6049 52.3703 43.8709 59.1204C40.1369 65.8705 38.4883 73.5763 39.1338 81.2633C39.7792 88.9503 42.6896 96.2733 47.4969 102.306C52.3042 108.339 58.7926 112.811 66.1414 115.157C73.4903 117.502 81.3696 117.615 88.783 115.483C96.1964 113.35 102.811 109.067 107.79 103.175C112.122 98.049 115.047 91.9054 116.305 85.347C116.617 83.7198 118.091 82.5327 119.737 82.7189L152.525 86.4259Z" fill="#20A7ED"/>
<path fill-rule="evenodd" clip-rule="evenodd" d="M107.467 32.3556L107.467 6.93335L113.244 6.93335L113.244 32.3556L107.467 32.3556Z" fill="#FFAB00"/>
<path fill-rule="evenodd" clip-rule="evenodd" d="M117.867 34.154L135.843 16.1778L139.928 20.2633L121.952 38.2395L117.867 34.154Z" fill="#FFAB00"/>
<path fill-rule="evenodd" clip-rule="evenodd" d="M123.644 41.6L149.067 41.6L149.067 47.3778L123.644 47.3778L123.644 41.6Z" fill="#FFAB00"/>
<path fill-rule="evenodd" clip-rule="evenodd" d="M117.474 39.5268H117.682V46.3835L117.867 46.5678L117.682 46.752V67.7244H107.887V56.5473L78.5708 85.8637L71.6445 78.9373L101.26 49.3221H89.2761V39.5268L107.887 39.5268H117.474Z" fill="#FFAB00"/>
</svg>
